<svg width="60" height="60" viewBox="0 0 60 60" fill="none" xmlns="http://www.w3.org/2000/svg">
<g clip-path="url(#clip0_105_484)">
<path d="M58.8219 30.8865C57.6726 17.343 43.9696 7.71594 30.3395 7.71594C12.3999 7.71594 13.5891 13.5887 11.5893 13.7551C6.69134 14.1507 0 19.8752 0 26.5585C0 33.2522 2.77619 39.7781 10.8506 39.7781C10.3591 42.5509 11.3384 47.0429 20.0593 47.0429C24.2365 47.0429 30.115 47.0429 32.141 47.0429C32.141 53.6453 42.1009 52.0958 45.5989 52.0958C49.1058 52.0958 49.6771 48.3405 49.0375 47.3656C59.9688 47.2824 61.5034 35.8676 58.8219 30.8865ZM42.9994 13.4301H46.0971C46.7629 13.4301 47.3045 13.9729 47.3045 14.6442C47.3045 15.3306 46.7629 15.8768 46.0971 15.8768H42.9994C42.313 15.8768 41.7693 15.3306 41.7693 14.6442C41.7693 13.9729 42.313 13.4301 42.9994 13.4301ZM34.0233 17.6725C34.241 17.6725 34.4405 17.6725 34.6264 17.6725C35.2716 17.6725 35.4392 17.5653 35.4392 17.5653C35.4997 17.4478 35.4997 16.9952 35.4997 16.7091V13.1361C35.4997 12.468 36.0332 11.9161 36.7138 11.9161C37.3808 11.9161 37.9303 12.468 37.9303 13.1361V16.6898C37.9429 16.9952 37.9429 17.335 37.895 17.6725H41.9333C42.0575 17.6725 42.1922 17.6667 42.3539 17.6667C43.3345 17.6258 44.8189 17.5824 45.9111 18.6301C46.6202 19.3153 46.992 20.3414 46.992 21.6685V25.9667C46.992 26.3704 46.9772 27.2117 47.2006 27.4431C47.3044 27.54 47.5518 27.5469 47.6408 27.5469H53.9354C54.5967 27.5469 55.1392 28.1033 55.1392 28.7726C55.1392 29.4578 54.5966 30.0028 53.9354 30.0028H47.6408C46.5211 30.0028 45.8349 29.5513 45.4655 29.1704C44.518 28.2071 44.5214 26.7887 44.5476 25.9462V25.7639V21.6685C44.5476 21.0506 44.4244 20.5899 44.2123 20.3825C43.8782 20.0598 43.0814 20.0872 42.4362 20.1157C42.2525 20.1157 42.0884 20.1293 41.9333 20.1293H33.9217C33.9217 20.1293 33.909 20.1157 33.8829 20.1157C32.8671 20.1157 31.4181 20.1157 31.0303 20.4975C31.0064 20.526 30.9151 20.5979 30.9151 20.9068V27.5787C30.9151 28.2594 30.3599 28.81 29.6952 28.81C29.0202 28.81 28.4718 28.2594 28.4718 27.5787V20.9068C28.4718 19.8203 28.937 19.1395 29.3086 18.7634C30.4467 17.6462 32.3599 17.652 34.0233 17.6725ZM23.329 10.8113C23.329 10.1376 23.8774 9.58462 24.541 9.58462C25.2251 9.58462 25.7711 10.1375 25.7711 10.8113V12.1589H27.8222C28.4857 12.1589 29.0341 12.7164 29.0341 13.3811C29.0341 14.0618 28.4857 14.6113 27.8222 14.6113H25.7711V16.3615C25.7711 17.0283 25.225 17.5882 24.541 17.5882C23.8774 17.5882 23.329 17.0283 23.329 16.3615V10.8113ZM11.3008 16.9349H16.3767C17.5452 16.9246 19.0103 16.9143 20.0945 18.002C20.9303 18.824 21.3339 20.0702 21.3339 21.8304V23.1257H23.2504C23.9265 23.1257 24.4658 23.6854 24.4658 24.3615C24.4658 25.0352 23.9265 25.5859 23.2504 25.5859H21.3339V26.6008C21.3339 27.2756 20.7798 27.8298 20.1162 27.8298C19.4276 27.8298 18.8826 27.2758 18.8826 26.6008V21.8304C18.8826 20.7929 18.7013 20.0701 18.3719 19.7486C18.0013 19.3576 17.2123 19.3576 16.3824 19.3871H11.3008C10.6077 19.3871 10.0764 18.8343 10.0764 18.1547C10.0764 17.49 10.6077 16.9349 11.3008 16.9349ZM10.2804 27.7488V29.9812C10.2804 30.6618 9.74114 31.2068 9.04563 31.2068C8.37636 31.2068 7.8371 30.6618 7.8371 29.9812V27.7488H4.72803C4.0509 27.7488 3.49794 27.1958 3.49794 26.522C3.49794 25.846 4.05102 25.2918 4.72803 25.2918H13.3051C13.9642 25.2918 14.5262 25.8459 14.5262 26.522C14.5262 27.1958 13.9642 27.7488 13.3051 27.7488H10.2804ZM16.5339 35.8038C15.8316 36.4912 15.4976 37.4969 15.4976 38.8832C15.4976 39.5467 14.9412 40.1089 14.2731 40.1089C13.5891 40.1089 13.052 39.5468 13.052 38.8832C13.052 36.8424 13.646 35.22 14.8135 34.0684C16.8954 32.014 20.1719 32.0665 22.1205 32.0961C22.3325 32.0961 22.5081 32.0961 22.6804 32.0961H32.5561C34.1021 32.0961 35.2273 31.7576 35.8636 31.0803C36.9057 29.9812 36.8212 28.0397 36.7459 26.4617C36.7301 26.0832 36.7141 25.7276 36.7141 25.4174C36.7141 24.7356 37.2533 24.1929 37.9202 24.1929C38.6112 24.1929 39.1574 24.7356 39.1574 25.4174C39.1574 25.6898 39.1733 26.0148 39.1892 26.3603C39.2794 28.1697 39.4012 30.9082 37.6547 32.7574C36.518 33.9477 34.809 34.545 32.5561 34.545H22.6804C22.4991 34.545 22.2962 34.545 22.0818 34.545C20.4126 34.5222 17.8793 34.4834 16.5339 35.8038ZM29.2006 41.0755V43.5199C29.2006 44.2052 28.6545 44.7433 27.9785 44.7433C27.3046 44.7433 26.7608 44.2052 26.7608 43.5199V41.0755H22.0213C21.3544 41.0755 20.7934 40.5282 20.7934 39.8499C20.7934 39.1853 21.3542 38.6265 22.0213 38.6265H37.52C38.203 38.6265 38.7399 39.1852 38.7399 39.8499C38.7399 40.5282 38.203 41.0755 37.52 41.0755H29.2006ZM45.6832 47.1147H38.4231C37.7481 47.1147 37.1997 46.5709 37.1997 45.8983C37.1997 45.2176 37.7481 44.6715 38.4231 44.6715H42.6643V42.3936C42.6643 41.7004 43.2104 41.1668 43.8876 41.1668C44.5694 41.1668 45.1075 41.7004 45.1075 42.3936V44.6715H45.6833C46.3536 44.6715 46.9044 45.2176 46.9044 45.8983C46.9043 46.5709 46.3535 47.1147 45.6832 47.1147ZM48.8551 38.6266V36.6279H43.1921C42.5193 36.6279 41.9676 36.091 41.9676 35.4138C41.9676 34.7377 42.5193 34.1836 43.1921 34.1836H51.7486C52.4384 34.1836 52.9844 34.7377 52.9844 35.4138C52.9844 36.091 52.4384 36.6279 51.7486 36.6279H51.3085V38.6266C51.3085 39.3165 50.759 39.85 50.0851 39.85C49.4102 39.85 48.8551 39.3165 48.8551 38.6266ZM55.1394 44.252H52.044C51.361 44.252 50.8148 43.7184 50.8148 43.0378C50.8148 42.3572 51.361 41.819 52.044 41.819H55.1394C55.8257 41.819 56.3775 42.3572 56.3775 43.0378C56.3775 43.7184 55.8257 44.252 55.1394 44.252Z" fill="#FFF04E"/>
</g>
<defs>
<clipPath id="clip0_105_484">
<rect width="59.97" height="59.97" fill="white"/>
</clipPath>
</defs>
</svg>
