<svg width="31" height="31" viewBox="0 0 31 31" fill="none" xmlns="http://www.w3.org/2000/svg">
<g clip-path="url(#clip0_94_485)">
<path d="M6.1593 4.61388C5.85716 4.12433 6.00913 3.48249 6.49871 3.18039L8.27165 2.08621C8.76123 1.78411 9.40302 1.93607 9.70516 2.42563C10.0073 2.91528 9.85532 3.55702 9.36572 3.85922L7.5928 4.95329C7.10323 5.2554 6.46142 5.10343 6.1593 4.61388Z" fill="#4EFF69"/>
<path d="M6.02745 8.36742C5.72533 7.87787 5.8773 7.23603 6.36687 6.93393L11.6856 3.6517C12.1752 3.3495 12.817 3.50146 13.1191 3.99111C13.4213 4.48067 13.2693 5.12251 12.7797 5.42461L7.46096 8.70683C6.97139 9.00893 6.32958 8.85697 6.02745 8.36742Z" fill="#4EFF69"/>
<path d="M12.648 9.17807L19.2125 19.8155L21.8718 18.1744C22.3614 17.8723 23.0032 18.0242 23.3053 18.5138C23.6074 19.0034 23.4554 19.6452 22.9659 19.9473L15.8742 24.3237C15.3846 24.6258 14.7429 24.4738 14.4407 23.9843C14.1386 23.4947 14.2905 22.8529 14.7801 22.5507L17.4396 20.9096L10.8751 10.2721L8.21564 11.9133C7.72607 12.2154 7.08426 12.0635 6.78214 11.5739C6.48 11.0844 6.63197 10.4425 7.12155 10.1404L14.2132 5.76403C14.7028 5.46193 15.3447 5.6139 15.6468 6.10345C15.9489 6.593 15.7969 7.23483 15.3073 7.53694L12.648 9.17807Z" fill="#4EFF69"/>
<path d="M17.3079 24.6631C16.8183 24.9653 16.6664 25.6071 16.9685 26.0966C17.2707 26.5862 17.9124 26.7382 18.4021 26.4361L23.7208 23.1538C24.2103 22.8517 24.3623 22.2099 24.0602 21.7203C23.7581 21.2307 23.1163 21.0787 22.6267 21.3809L17.3079 24.6631Z" fill="#4EFF69"/>
<path d="M20.7218 26.2283C20.2323 26.5305 20.0803 27.1723 20.3824 27.6618C20.6846 28.1514 21.3264 28.3034 21.816 28.0013L23.5889 26.9072C24.0785 26.605 24.2304 25.9632 23.9283 25.4737C23.6261 24.9841 22.9844 24.8321 22.4948 25.1343L20.7218 26.2283Z" fill="#4EFF69"/>
</g>
<defs>
<clipPath id="clip0_94_485">
<rect width="25" height="25" fill="white" transform="translate(0 24.3274) rotate(-76.6792)"/>
</clipPath>
</defs>
</svg>
