<svg width="32" height="30" viewBox="0 0 32 30" fill="none" xmlns="http://www.w3.org/2000/svg">
<path d="M13.165 20.1915L12.6471 21.1678L13.3857 23.1271C13.8664 22.9445 14.2449 22.5254 14.3499 21.9835C14.5091 21.1614 13.9799 20.3667 13.165 20.1915Z" fill="#FF6666"/>
<path d="M10.0452 5.30448C11.51 5.30448 12.6974 4.11706 12.6974 2.6523C12.6974 1.18754 11.51 0.00012207 10.0452 0.00012207C8.58046 0.00012207 7.39304 1.18754 7.39304 2.6523C7.39304 4.11706 8.58046 5.30448 10.0452 5.30448Z" fill="#FF6666"/>
<path d="M22.046 20.7238L22.3051 21.4303L20.8888 28.1179C20.7131 28.9476 21.2433 29.7626 22.073 29.9384C22.1803 29.9611 22.2873 29.972 22.3926 29.972C23.1028 29.972 23.7404 29.4766 23.8934 28.7541L25.3537 21.8583L24.7894 21.3719L22.046 20.7238Z" fill="#FF6666"/>
<path d="M20.5236 5.30456C21.9884 5.30456 23.1759 4.11709 23.1759 2.65228C23.1759 1.18747 21.9884 0 20.5236 0C19.0588 0 17.8713 1.18747 17.8713 2.65228C17.8713 4.11709 19.0588 5.30456 20.5236 5.30456Z" fill="#FF6666"/>
<path d="M11.3019 21.0821L13.0058 17.8118C13.2966 17.2537 13.4484 16.6336 13.4484 16.0043V7.89037C13.4484 6.90089 12.6463 6.09867 11.6567 6.09867H8.46166L5.27006 6.43231L2.06883 3.92531C1.51231 3.48949 0.70814 3.58746 0.272219 4.14388C-0.163497 4.7004 -0.0657268 5.50468 0.490794 5.9405L4.08699 8.75678C4.31293 8.93379 4.59099 9.0289 4.87601 9.0289C4.91112 9.0289 6.67006 8.88445 6.67006 8.88445V9.69415L6.85127 9.72189L10.4046 7.40725L7.12902 11.0071L2.79264 10.344C2.10733 10.2393 1.43584 10.6772 1.30377 11.3578C1.19269 11.93 1.47904 12.4799 1.96226 12.7349C2.08531 12.7999 2.22107 12.8458 2.36644 12.8679L7.42048 13.6408C7.84412 13.7055 8.27195 13.554 8.56045 13.237L12.1774 9.26171L9.63838 13.8263C9.58852 13.9159 9.52832 13.9994 9.45891 14.0749C8.98511 14.5893 8.31352 14.8839 7.61398 14.8839C7.48754 14.8839 7.35998 14.8742 7.23477 14.8551L6.67016 14.7688V15.5674L3.19488 18.9252C2.78291 19.3231 2.62679 19.9172 2.78977 20.4664C2.95265 21.0154 3.40762 21.4282 3.96987 21.5372L7.10762 22.1449L7.03401 21.9497C6.75421 21.2073 6.80684 20.3804 7.17867 19.6795L8.55625 17.0826H9.94694L8.26397 20.255C8.05737 20.6445 8.02809 21.1039 8.1836 21.5163L10.9959 28.9774C11.2279 29.5927 11.8124 29.9718 12.4332 29.9718C12.6131 29.9718 12.7962 29.94 12.9744 29.8727C13.7681 29.5736 14.169 28.6877 13.8698 27.8942L11.3019 21.0821Z" fill="#FF6666"/>
<path d="M31.467 21.4511L27.0852 17.6739C26.8984 17.5128 26.6756 17.3992 26.4356 17.3425L25.5289 17.1283C25.4749 17.375 25.3827 17.6175 25.2495 17.8474C24.8025 18.6189 23.9705 19.0982 23.0782 19.0982C22.9188 19.0982 22.7587 19.0828 22.6025 19.0525C22.3275 18.9993 22.0648 18.9008 21.8218 18.7598L17.3981 16.1962C17.3006 16.1397 17.2083 16.0768 17.1205 16.009V17.142C17.1463 17.8146 17.6168 18.4149 18.3037 18.5773L25.3642 20.2452L29.4616 23.7773C29.7517 24.0273 30.1082 24.1498 30.4632 24.1498C30.4633 24.1498 30.4635 24.1498 30.4636 24.1498C30.8949 24.1498 31.3238 23.969 31.6274 23.6169C32.1813 22.9745 32.1093 22.0048 31.467 21.4511Z" fill="#FF6666"/>
<path d="M18.014 15.1334L22.4376 17.697C22.5648 17.7707 22.6994 17.8199 22.836 17.8464C23.3562 17.9472 23.9058 17.7158 24.1865 17.2315C24.541 16.62 24.3325 15.837 23.7209 15.4826L19.8909 13.2629L19.5928 8.40494L20.9125 12.435L23.8988 14.1656V10.2825L25.94 11.9561C26.1753 12.149 26.463 12.2461 26.7515 12.2461C27.0142 12.2461 27.2776 12.1655 27.502 12.0029L31.2148 9.31384C31.7873 8.89922 31.9152 8.09914 31.5006 7.52675C31.086 6.95436 30.2858 6.82639 29.7136 7.24092L26.7998 9.35121L23.374 6.5425C23.2505 6.44125 22.7578 6.09839 22.1071 6.09839H18.912C16.8727 6.09839 16.9692 7.43789 16.9965 7.88354L17.3782 14.1042C17.4047 14.5323 17.6432 14.9185 18.014 15.1334Z" fill="#FF6666"/>
</svg>
