<svg width="30" height="30" viewBox="0 0 30 30" fill="none" xmlns="http://www.w3.org/2000/svg">
<path d="M14.3139 2.01681C14.3139 0.90036 15.224 0 16.3524 0C17.4808 0 18.3908 0.90036 18.3908 2.01681C18.3908 3.13325 17.4808 4.03361 16.3524 4.03361C15.224 4.03361 14.3139 3.13325 14.3139 2.01681ZM5.28668 19.7479C5.28668 19.7479 10.1158 17.6591 10.14 17.6471C10.3099 17.563 10.3463 17.479 10.3706 17.2989C10.3706 17.2869 10.9894 14.0456 10.9894 14.0456L13.5253 17.0828L12.7487 22.2569C12.7002 23.9856 14.9206 23.9016 15.139 22.2689L15.9034 17.2269C15.9398 16.6507 15.7457 16.1705 15.5637 15.8583L12.8822 12.2569L14.2654 9.38776L14.2411 10.9364C14.2411 11.4526 14.6658 11.8848 15.1876 11.8848C15.1876 11.8848 19.0096 11.8848 19.046 11.8848C19.1309 11.8848 19.2158 11.8487 19.3008 11.8127C19.6769 11.6687 19.9439 11.3085 19.9439 10.8884C19.9439 10.3361 19.4949 9.90396 18.9489 9.90396L16.0976 9.85594V5.94238C16.0976 5.60624 16.0005 5.13806 15.685 4.76591C15.4181 4.33373 14.8235 3.91357 14.3139 3.85354C13.4282 3.7455 12.6638 4.16567 12.2027 4.84994C12.2027 4.84994 9.47271 9.78391 9.36351 10.072C9.31498 10.1561 8.21084 15.9544 8.21084 15.9544L4.13401 17.599C2.90853 18.1273 3.3696 20.3121 5.28668 19.7479ZM29.5778 25.4502C29.2502 25.8463 28.8012 26.0864 28.3038 26.1345L27.9883 26.1705V30H23.7416V26.5666L6.13602 28.2233V30H2.01066V28.6194C1.88933 28.6194 1.94999 28.6194 1.93786 28.6194C1.50106 28.6194 1.05212 28.4634 0.70025 28.1873C0.299847 27.8631 0.0571792 27.407 0.00864548 26.9148C-0.0398882 26.4106 0.117846 25.9184 0.433315 25.5342C0.760917 25.1381 1.22199 24.898 1.71946 24.8499L25.3554 22.617L21.1208 12.437L20.3321 13.1933L19.5434 12.389L25.7679 6.43457L26.5566 7.2389L22.5647 11.0564L27.2967 22.425L27.9034 22.3649C28.413 22.3169 28.9104 22.473 29.2987 22.7851C29.6991 23.1092 29.9418 23.5654 29.9903 24.0576C30.0389 24.5738 29.9054 25.066 29.5778 25.4502ZM28.9104 24.1777C28.8862 23.9616 28.7891 23.7695 28.6192 23.6255C28.4736 23.5054 28.2916 23.4334 28.0975 23.4334C28.0732 23.4334 28.049 23.4334 28.0247 23.4334L1.84079 25.9184C1.62239 25.9424 1.42826 26.0384 1.28265 26.2065C1.13705 26.3745 1.07639 26.5786 1.10065 26.7947C1.12492 27.0108 1.22199 27.2029 1.39186 27.3469C1.56172 27.491 1.76799 27.551 1.98639 27.527L28.1703 25.054C28.3887 25.03 28.5828 24.934 28.7284 24.7659C28.874 24.5978 28.9226 24.3938 28.9104 24.1777Z" fill="#7D6EFF"/>
</svg>
